<svg id="Layer_1" data-name="Layer 1" xmlns="http://www.w3.org/2000/svg" viewBox="0 0 1523.23 915.48"><defs><style>.cls-1{font-size:11px;fill:#58595b;font-family:MyriadPro-LightIt, Myriad Pro;font-style:italic;}.cls-1,.cls-50{font-weight:300;}.cls-2{letter-spacing:-0.02em;}.cls-3{letter-spacing:0em;}.cls-4{letter-spacing:-0.01em;}.cls-5{letter-spacing:0.01em;}.cls-6{letter-spacing:-0.01em;}.cls-7{letter-spacing:-0.01em;}.cls-8{letter-spacing:-0.01em;}.cls-66,.cls-9{font-size:17px;}.cls-31,.cls-47,.cls-66,.cls-9{font-family:MyriadPro-Regular, Myriad Pro;}.cls-10{letter-spacing:0em;}.cls-11{letter-spacing:0.01em;}.cls-12{letter-spacing:-0.01em;}.cls-13{letter-spacing:0.01em;}.cls-14{letter-spacing:-0.01em;}.cls-15{letter-spacing:0.01em;}.cls-16{letter-spacing:-0.01em;}.cls-100,.cls-101,.cls-102,.cls-103,.cls-17,.cls-18,.cls-19,.cls-22,.cls-95,.cls-96,.cls-97,.cls-98,.cls-99{fill:none;stroke-miterlimit:10;}.cls-100,.cls-101,.cls-102,.cls-17,.cls-18,.cls-19,.cls-22,.cls-95,.cls-96,.cls-97,.cls-98,.cls-99{stroke:#000;}.cls-100,.cls-101,.cls-102,.cls-17,.cls-18,.cls-19,.cls-22,.cls-96,.cls-97,.cls-98,.cls-99{stroke-width:0.5px;}.cls-18{stroke-dasharray:12.77 12.77;}.cls-19{stroke-dasharray:12.22 12.22;}.cls-20{letter-spacing:0.01em;}.cls-21{letter-spacing:0em;}.cls-22{stroke-dasharray:10.54 10.54;}.cls-23{fill:#8e44ad;}.cls-24{fill:#e67e22;}.cls-25{letter-spacing:-0.01em;}.cls-26{letter-spacing:-0.01em;}.cls-27{letter-spacing:-0.01em;}.cls-28{letter-spacing:0em;}.cls-29{letter-spacing:0.02em;}.cls-30{letter-spacing:-0.01em;}.cls-31{font-size:20px;}.cls-105,.cls-31,.cls-47,.cls-50{fill:#231f20;}.cls-32{letter-spacing:-0.02em;}.cls-33{letter-spacing:0em;}.cls-34{letter-spacing:-0.01em;}.cls-35{letter-spacing:-0.01em;}.cls-36{letter-spacing:0em;}.cls-37{letter-spacing:0em;}.cls-38{letter-spacing:0.01em;}.cls-39{letter-spacing:0em;}.cls-40{letter-spacing:0.01em;}.cls-41{letter-spacing:0em;}.cls-42{letter-spacing:0.02em;}.cls-43{letter-spacing:-0.01em;}.cls-44{letter-spacing:0.01em;}.cls-45{letter-spacing:0em;}.cls-46{letter-spacing:0.01em;}.cls-47{font-size:14px;}.cls-48{letter-spacing:0.01em;}.cls-49{letter-spacing:-0.01em;}.cls-50{font-size:12px;font-family:MyriadPro-Light, Myriad Pro;}.cls-51{letter-spacing:0.01em;}.cls-52{letter-spacing:-0.03em;}.cls-53{letter-spacing:0em;}.cls-54{letter-spacing:-0.05em;}.cls-55{letter-spacing:0.01em;}.cls-56{letter-spacing:-0.01em;}.cls-57{letter-spacing:0.01em;}.cls-58{letter-spacing:0em;}.cls-59{letter-spacing:0em;}.cls-60{letter-spacing:-0.01em;}.cls-61{letter-spacing:0.01em;}.cls-62{letter-spacing:0.02em;}.cls-63{letter-spacing:-0.01em;}.cls-64{letter-spacing:0.01em;}.cls-65{letter-spacing:0em;}.cls-66{fill:#414042;}.cls-67{letter-spacing:-0.04em;}.cls-68{letter-spacing:-0.01em;}.cls-69{letter-spacing:0em;}.cls-70{letter-spacing:-0.01em;}.cls-71{letter-spacing:0.01em;}.cls-72{letter-spacing:-0.07em;}.cls-73{letter-spacing:0em;}.cls-74{letter-spacing:-0.01em;}.cls-75{letter-spacing:0.02em;}.cls-76{letter-spacing:1.58em;}.cls-77{letter-spacing:0em;}.cls-78{letter-spacing:0.02em;}.cls-79{letter-spacing:-0.02em;}.cls-80{letter-spacing:-0.01em;}.cls-81{letter-spacing:0em;}.cls-82{letter-spacing:0.01em;}.cls-83{letter-spacing:-0.01em;}.cls-84{letter-spacing:-0.03em;}.cls-85{letter-spacing:-0.01em;}.cls-86{letter-spacing:0em;}.cls-87{letter-spacing:-0.01em;}.cls-88{letter-spacing:-0.01em;}.cls-89{letter-spacing:0.02em;}.cls-90{letter-spacing:-0.01em;}.cls-91{letter-spacing:0em;}.cls-92{letter-spacing:-0.03em;}.cls-93{letter-spacing:-0.02em;}.cls-94{letter-spacing:-0.02em;}.cls-95{stroke-width:0.75px;}.cls-96{stroke-dasharray:10.78 10.78;}.cls-97{stroke-dasharray:12.13 12.13;}.cls-98{stroke-dasharray:4.87 4.87;}.cls-99{stroke-dasharray:4.26 4.26;}.cls-100{stroke-dasharray:5.33 5.33;}.cls-101{stroke-dasharray:4.63 4.63;}.cls-102{stroke-dasharray:12.5 12.5;}.cls-103{stroke:#e67e22;}.cls-104{letter-spacing:-0.01em;}.cls-105{font-family:Helvetica;}.cls-106{fill:#27ae60;}.cls-107{fill:#3498db;}.cls-108{fill:#ff00cf;}</style></defs><title>PEMM Object Diagram – 03-24-2019 – V6</title><text class="cls-1" transform="translate(831.99 870.1)">Cha<tspan class="cls-2" x="17.13" y="0">r</tspan><tspan x="20.06" y="0">ac</tspan><tspan class="cls-3" x="30.17" y="0">t</tspan><tspan x="33.35" y="0">er</tspan><tspan class="cls-4" x="41.16" y="0">s</tspan><tspan x="44.86" y="0">, </tspan><tspan class="cls-5" x="48.83" y="0">O</tspan><tspan x="56.02" y="0">bject</tspan><tspan class="cls-6" x="76.16" y="0">s</tspan><tspan x="79.86" y="0">, </tspan><tspan class="cls-7" x="83.83" y="0">P</tspan><tspan x="88.98" y="0">la</tspan><tspan class="cls-8" x="96.78" y="0">c</tspan><tspan x="101.25" y="0">es</tspan></text><text class="cls-9" transform="translate(1029.91 854.17)">Cha<tspan class="cls-10" x="27.49" y="0">r</tspan><tspan x="32.96" y="0">a</tspan><tspan class="cls-11" x="41.16" y="0">c</tspan><tspan class="cls-12" x="48.99" y="0">t</tspan><tspan x="54.52" y="0">ers</tspan></text><text class="cls-9" transform="translate(646.57 850.38)"><tspan class="cls-13">M</tspan><tspan x="13.77" y="0">a</tspan><tspan class="cls-14" x="21.96" y="0">c</tspan><tspan x="29.48" y="0">omber </tspan><tspan x="3.71" y="20.4">Ke</tspan><tspan class="cls-15" x="21.44" y="20.4">y</tspan><tspan class="cls-16" x="29.65" y="20.4">w</tspan><tspan x="41.99" y="20.4">o</tspan><tspan class="cls-16" x="51.32" y="20.4">r</tspan><tspan x="56.71" y="20.4">ds</tspan></text><polyline class="cls-17" points="1144.97 866.48 1144.97 872.48 1138.97 872.48"/><line class="cls-18" x1="1126.2" y1="872.48" x2="1004.9" y2="872.48"/><polyline class="cls-17" points="998.52 872.48 992.52 872.48 992.52 866.48"/><line class="cls-19" x1="992.52" y1="854.25" x2="992.52" y2="835.91"/><polyline class="cls-17" points="992.52 829.8 992.52 823.8 998.52 823.8"/><line class="cls-18" x1="1011.29" y1="823.8" x2="1132.58" y2="823.8"/><polyline class="cls-17" points="1138.97 823.8 1144.97 823.8 1144.97 829.8"/><line class="cls-19" x1="1144.97" y1="842.03" x2="1144.97" y2="860.36"/><text class="cls-9" transform="translate(426.45 853.17)"><tspan class="cls-20">I</tspan><tspan x="4.23" y="0">llust</tspan><tspan class="cls-10" x="33.98" y="0">r</tspan><tspan class="cls-21" x="39.46" y="0">a</tspan><tspan x="47.58" y="0">tions</tspan></text><polyline class="cls-17" points="545.51 865.48 545.51 871.48 539.51 871.48"/><line class="cls-18" x1="526.74" y1="871.48" x2="405.45" y2="871.48"/><polyline class="cls-17" points="399.06 871.48 393.06 871.48 393.06 865.48"/><line class="cls-19" x1="393.06" y1="853.25" x2="393.06" y2="834.91"/><polyline class="cls-17" points="393.06 828.8 393.06 822.8 399.06 822.8"/><line class="cls-18" x1="411.83" y1="822.8" x2="533.12" y2="822.8"/><polyline class="cls-17" points="539.51 822.8 545.51 822.8 545.51 828.8"/><line class="cls-19" x1="545.51" y1="841.03" x2="545.51" y2="859.36"/><text class="cls-9" transform="translate(851.56 851.09)">Ke<tspan class="cls-15" x="17.73" y="0">y</tspan><tspan class="cls-16" x="25.94" y="0">w</tspan><tspan x="38.28" y="0">o</tspan><tspan class="cls-16" x="47.62" y="0">r</tspan><tspan x="53.01" y="0">ds</tspan></text><polyline class="cls-17" points="963.07 882.16 963.07 888.16 957.07 888.16"/><line class="cls-18" x1="944.3" y1="888.16" x2="823.01" y2="888.16"/><polyline class="cls-17" points="816.62 888.16 810.62 888.16 810.62 882.16"/><line class="cls-22" x1="810.62" y1="871.62" x2="810.62" y2="834.72"/><polyline class="cls-17" points="810.62 829.45 810.62 823.45 816.62 823.45"/><line class="cls-18" x1="829.39" y1="823.45" x2="950.69" y2="823.45"/><polyline class="cls-17" points="957.07 823.45 963.07 823.45 963.07 829.45"/><line class="cls-22" x1="963.07" y1="840" x2="963.07" y2="876.89"/><polyline class="cls-17" points="761.16 882.09 761.16 888.09 755.16 888.09"/><line class="cls-18" x1="742.39" y1="888.09" x2="621.1" y2="888.09"/><polyline class="cls-17" points="614.72 888.09 608.72 888.09 608.72 882.09"/><line class="cls-22" x1="608.72" y1="871.55" x2="608.72" y2="834.66"/><polyline class="cls-17" points="608.72 829.38 608.72 823.38 614.72 823.38"/><line class="cls-18" x1="627.48" y1="823.39" x2="748.78" y2="823.39"/><polyline class="cls-17" points="755.16 823.38 761.16 823.38 761.16 829.38"/><line class="cls-22" x1="761.16" y1="839.93" x2="761.16" y2="876.82"/><polygon class="cls-23" points="558.27 842.16 561.68 839.67 561.22 843.87 565.08 845.57 561.22 847.27 561.68 851.47 558.27 848.97 554.87 851.47 555.32 847.27 551.46 845.57 555.32 843.87 554.87 839.67 558.27 842.16"/><polygon class="cls-24" points="771.71 853.06 767.53 851.1 771.63 848.97 772.21 844.39 775.49 847.64 780.02 846.77 777.95 850.9 780.18 854.94 775.62 854.25 772.46 857.61 771.71 853.06"/><text class="cls-9" transform="translate(126.33 302.13)"><tspan class="cls-25">C</tspan><tspan x="9.67" y="0">olle</tspan><tspan class="cls-11" x="35.55" y="0">c</tspan><tspan x="43.38" y="0">tion</tspan></text><text class="cls-1" transform="translate(104.64 320.55)">A <tspan class="cls-8" x="7.89" y="0">c</tspan><tspan x="12.36" y="0">ollection at an a</tspan><tspan class="cls-26" x="79.7" y="0">r</tspan><tspan x="82.77" y="0">chi</tspan><tspan class="cls-27" x="95.29" y="0">v</tspan><tspan x="99.83" y="0">e or </tspan><tspan x="1.96" y="13.2">other institution that holds </tspan><tspan x="31.65" y="26.4">ma</tspan><tspan class="cls-28" x="45.91" y="26.4">n</tspan><tspan x="51.56" y="26.4">uscripts</tspan></text><text class="cls-1" transform="translate(576.81 320.91)">S<tspan class="cls-28" x="4.82" y="0">t</tspan><tspan x="8" y="0">o</tspan><tspan class="cls-29" x="13.5" y="0">r</tspan><tspan x="16.86" y="0">y as it o</tspan><tspan class="cls-30" x="47.59" y="0">c</tspan><tspan x="52.06" y="0">curs </tspan><tspan x="1.85" y="13.2">in a ma</tspan><tspan class="cls-28" x="33.55" y="13.2">n</tspan><tspan x="39.2" y="13.2">uscript</tspan></text><text class="cls-31" transform="translate(69.61 66.52)"><tspan class="cls-32">P</tspan><tspan class="cls-33" x="10.32" y="0">r</tspan><tspan x="16.94" y="0">in</tspan><tspan class="cls-34" x="32.72" y="0">c</tspan><tspan x="41.56" y="0">e</tspan><tspan class="cls-35" x="51.58" y="0">t</tspan><tspan class="cls-36" x="58.08" y="0">on </tspan><tspan class="cls-37" x="84.4" y="0">E</tspan><tspan x="94.18" y="0">thiopian </tspan><tspan class="cls-38" x="168.6" y="0">M</tspan><tspan x="184.92" y="0">i</tspan><tspan class="cls-39" x="189.6" y="0">r</tspan><tspan x="196.04" y="0">acles of </tspan><tspan class="cls-40" x="262.6" y="0">M</tspan><tspan class="cls-41" x="278.79" y="0">a</tspan><tspan class="cls-42" x="288.44" y="0">r</tspan><tspan x="295.48" y="0">y </tspan><tspan class="cls-32" x="309.13" y="0">P</tspan><tspan class="cls-43" x="319.46" y="0">r</tspan><tspan x="325.8" y="0">oje</tspan><tspan class="cls-44" x="351.66" y="0">c</tspan><tspan x="360.88" y="0">t – D</tspan><tspan class="cls-45" x="399.29" y="0">a</tspan><tspan x="408.85" y="0">ta </tspan><tspan class="cls-46" x="429.35" y="0">M</tspan><tspan class="cls-36" x="445.55" y="0">odel</tspan></text><text class="cls-47" transform="translate(69.61 87.36)"><tspan class="cls-48">M</tspan><tspan x="11.34" y="0">a</tspan><tspan class="cls-49" x="18.09" y="0">r</tspan><tspan x="22.53" y="0">ch 24, 2020</tspan></text><text class="cls-50" transform="translate(69.61 113.69)"><tspan class="cls-35">C</tspan><tspan x="6.77" y="0">ont</tspan><tspan class="cls-51" x="23.29" y="0">r</tspan><tspan x="26.92" y="0">ibu</tspan><tspan class="cls-35" x="42.42" y="0">t</tspan><tspan x="46.06" y="0">ors</tspan><tspan class="cls-52" x="0" y="16.4">W</tspan><tspan x="9.53" y="16.4">endy </tspan><tspan class="cls-53" x="36.22" y="16.4">B</tspan><tspan x="42.31" y="16.4">elche</tspan><tspan class="cls-54" x="68.28" y="16.4">r</tspan><tspan x="71.28" y="16.4">, </tspan><tspan class="cls-55" x="76" y="16.4">R</tspan><tspan x="82.12" y="16.4">ebecca Sut</tspan><tspan class="cls-56" x="134.81" y="16.4">t</tspan><tspan x="138.44" y="16.4">on </tspan><tspan class="cls-57" x="153.89" y="16.4">K</tspan><tspan x="159.99" y="16.4">oese</tspan><tspan class="cls-54" x="182.49" y="16.4">r</tspan><tspan x="185.49" y="16.4">, </tspan><tspan class="cls-55" x="190.21" y="16.4">R</tspan><tspan x="196.33" y="16.4">ebecca </tspan><tspan class="cls-58" x="233.37" y="16.4">M</tspan><tspan x="242.76" y="16.4">unson, </tspan><tspan class="cls-59" x="277.57" y="16.4">E</tspan><tspan class="cls-60" x="283.11" y="16.4">v</tspan><tspan x="288.45" y="16.4">geniia Lamb</tspan><tspan class="cls-61" x="347.6" y="16.4">r</tspan><tspan x="351.22" y="16.4">ina</tspan><tspan class="cls-62" x="365.61" y="16.4">k</tspan><tspan x="370.95" y="16.4">i, Gissoo </tspan><tspan class="cls-40" x="412.52" y="16.4">D</tspan><tspan x="420.35" y="16.4">o</tspan><tspan class="cls-63" x="426.74" y="16.4">r</tspan><tspan x="430.14" y="16.4">oudian, </tspan><tspan class="cls-64" x="468.53" y="16.4">N</tspan><tspan x="476.37" y="16.4">ick Budak</tspan></text><text class="cls-9" transform="translate(321.22 308.2)"><tspan class="cls-13">M</tspan><tspan x="13.77" y="0">anusc</tspan><tspan class="cls-65" x="55.11" y="0">r</tspan><tspan x="60.74" y="0">ipt</tspan></text><text class="cls-66" transform="translate(286.02 356.45)">- <tspan class="cls-13" x="8.82" y="0">M</tspan><tspan x="22.59" y="0">anusc</tspan><tspan class="cls-65" x="63.94" y="0">r</tspan><tspan x="69.56" y="0">ipt name</tspan><tspan x="0" y="20.4">- ID</tspan><tspan x="0" y="40.8">-</tspan><tspan class="cls-67" x="5.22" y="40.8"> </tspan><tspan class="cls-68" x="8.13" y="40.8">T</tspan><tspan class="cls-69" x="16.37" y="40.8">itle</tspan><tspan x="0" y="61.2">- </tspan><tspan class="cls-70" x="8.82" y="61.2">C</tspan><tspan x="18.5" y="61.2">olle</tspan><tspan class="cls-71" x="44.37" y="61.2">c</tspan><tspan x="52.21" y="61.2">tion</tspan><tspan x="0" y="81.6">- O</tspan><tspan class="cls-65" x="20.54" y="81.6">r</tspan><tspan x="26.16" y="81.6">i</tspan><tspan class="cls-14" x="30.14" y="81.6">g</tspan><tspan x="39.54" y="81.6">inal </tspan><tspan class="cls-12" x="68.76" y="81.6">c</tspan><tspan x="76.28" y="81.6">olle</tspan><tspan class="cls-11" x="102.15" y="81.6">c</tspan><tspan x="109.99" y="81.6">tion</tspan><tspan x="0" y="102">-</tspan><tspan class="cls-67" x="5.22" y="102"> </tspan><tspan class="cls-72" x="8.13" y="102">T</tspan><tspan x="15.37" y="102">otal s</tspan><tspan class="cls-14" x="52.87" y="102">t</tspan><tspan x="58.39" y="102">o</tspan><tspan class="cls-73" x="67.73" y="102">r</tspan><tspan x="73.35" y="102">ies</tspan><tspan x="0" y="122.4">-</tspan><tspan class="cls-67" x="5.22" y="122.4"> </tspan><tspan class="cls-72" x="8.13" y="122.4">T</tspan><tspan x="15.37" y="122.4">otal </tspan><tspan class="cls-74" x="46.14" y="122.4">f</tspan><tspan x="50.88" y="122.4">olios</tspan><tspan x="0" y="142.8">-</tspan><tspan class="cls-67" x="5.22" y="142.8"> </tspan><tspan class="cls-72" x="8.13" y="142.8">T</tspan><tspan x="15.37" y="142.8">otal pages</tspan><tspan x="0" y="163.2">- </tspan><tspan class="cls-70" x="8.82" y="163.2">C</tspan><tspan class="cls-69" x="18.5" y="163.2">e</tspan><tspan class="cls-21" x="27.01" y="163.2">n</tspan><tspan x="36.38" y="163.2">tu</tspan><tspan class="cls-75" x="51.37" y="163.2">r</tspan><tspan x="57.36" y="163.2">y</tspan><tspan x="0" y="183.6">- D</tspan><tspan class="cls-21" x="20.14" y="183.6">a</tspan><tspan class="cls-14" x="28.27" y="183.6">t</tspan><tspan x="33.8" y="183.6">e </tspan><tspan class="cls-10" x="45.92" y="183.6">r</tspan><tspan x="51.39" y="183.6">ange</tspan><tspan class="cls-76" x="0" y="204">	</tspan><tspan x="30.55" y="204">-</tspan><tspan class="cls-77" x="35.76" y="204">S</tspan><tspan x="44.09" y="204">ta</tspan><tspan class="cls-78" x="57.92" y="204">r</tspan><tspan x="63.88" y="204">t</tspan><tspan class="cls-76" x="0" y="224.4">	</tspan><tspan x="30.55" y="224.4">-End</tspan><tspan x="0" y="244.8">- D</tspan><tspan class="cls-21" x="20.14" y="244.8">a</tspan><tspan class="cls-14" x="28.27" y="244.8">t</tspan><tspan x="33.8" y="244.8">e no</tspan><tspan class="cls-14" x="64.68" y="244.8">t</tspan><tspan x="70.21" y="244.8">e</tspan><tspan x="0" y="265.2">- </tspan><tspan class="cls-79" x="8.82" y="265.2">P</tspan><tspan class="cls-16" x="17.59" y="265.2">r</tspan><tspan class="cls-80" x="22.98" y="265.2">o</tspan><tspan class="cls-16" x="32.2" y="265.2">v</tspan><tspan x="40.21" y="265.2">enan</tspan><tspan class="cls-14" x="75.79" y="265.2">c</tspan><tspan x="83.3" y="265.2">e</tspan><tspan x="0" y="285.6">- Link</tspan><tspan x="0" y="306">- No</tspan><tspan class="cls-14" x="29.34" y="306">t</tspan><tspan x="34.87" y="306">es</tspan></text><text class="cls-66" transform="translate(95.78 385.82)">- Name<tspan x="0" y="20.4">- </tspan><tspan class="cls-25" x="8.82" y="20.4">C</tspan><tspan x="18.5" y="20.4">olle</tspan><tspan class="cls-11" x="44.37" y="20.4">c</tspan><tspan x="52.21" y="20.4">tion</tspan><tspan class="cls-76" x="0" y="40.8">	</tspan><tspan x="30.55" y="40.8">- Name</tspan><tspan class="cls-76" x="0" y="61.2">	</tspan><tspan x="30.55" y="61.2">- </tspan><tspan class="cls-77" x="39.37" y="61.2">A</tspan><tspan x="49.72" y="61.2">bb</tspan><tspan class="cls-16" x="69.07" y="61.2">r</tspan><tspan x="74.46" y="61.2">evi</tspan><tspan class="cls-21" x="95.13" y="61.2">a</tspan><tspan x="103.25" y="61.2">tion </tspan><tspan x="0" y="81.6">- </tspan><tspan class="cls-20" x="8.82" y="81.6">I</tspan><tspan x="13.06" y="81.6">nstitution </tspan><tspan class="cls-76" x="0" y="102">	</tspan><tspan x="30.55" y="102">- Name</tspan><tspan class="cls-76" x="0" y="122.4">	</tspan><tspan x="30.55" y="122.4">- </tspan><tspan class="cls-77" x="39.37" y="122.4">A</tspan><tspan x="49.72" y="122.4">bb</tspan><tspan class="cls-16" x="69.07" y="122.4">r</tspan><tspan x="74.46" y="122.4">evi</tspan><tspan class="cls-21" x="95.13" y="122.4">a</tspan><tspan x="103.25" y="122.4">tion</tspan><tspan x="0" y="142.8">- </tspan><tspan class="cls-25" x="8.82" y="142.8">C</tspan><tspan x="18.5" y="142.8">ou</tspan><tspan class="cls-81" x="37.2" y="142.8">n</tspan><tspan x="46.56" y="142.8">t</tspan><tspan class="cls-75" x="52.19" y="142.8">r</tspan><tspan x="58.17" y="142.8">y</tspan><tspan x="0" y="163.2">- </tspan><tspan class="cls-77" x="8.82" y="163.2">C</tspan><tspan x="18.63" y="163.2">i</tspan><tspan class="cls-82" x="22.61" y="163.2">t</tspan><tspan x="28.39" y="163.2">y</tspan><tspan x="0" y="183.6">- L</tspan><tspan class="cls-21" x="16.85" y="183.6">a</tspan><tspan x="24.97" y="183.6">titude</tspan><tspan x="0" y="204">- </tspan><tspan class="cls-83" x="8.82" y="204">L</tspan><tspan x="16.61" y="204">on</tspan><tspan class="cls-14" x="35.38" y="204">g</tspan><tspan x="44.78" y="204">itude</tspan><tspan x="0" y="224.4">- </tspan><tspan class="cls-13" x="8.82" y="224.4">S</tspan><tspan x="17.31" y="224.4">ou</tspan><tspan class="cls-16" x="36.01" y="224.4">r</tspan><tspan class="cls-14" x="41.39" y="224.4">c</tspan><tspan x="48.91" y="224.4">e</tspan><tspan x="0" y="244.8">- No</tspan><tspan class="cls-14" x="29.34" y="244.8">t</tspan><tspan x="34.87" y="244.8">es</tspan></text><text class="cls-66" transform="translate(493.71 368.91)">- <tspan class="cls-13" x="8.82" y="0">M</tspan><tspan x="22.59" y="0">anusc</tspan><tspan class="cls-65" x="63.94" y="0">r</tspan><tspan x="69.56" y="0">ipt</tspan><tspan x="0" y="20.4">- </tspan><tspan class="cls-80" x="8.82" y="20.4">C</tspan><tspan x="18.56" y="20.4">anonical s</tspan><tspan class="cls-14" x="89.1" y="20.4">t</tspan><tspan x="94.62" y="20.4">o</tspan><tspan class="cls-75" x="103.95" y="20.4">r</tspan><tspan x="109.94" y="20.4">y ID</tspan><tspan x="0" y="40.8">- </tspan><tspan class="cls-80" x="8.82" y="40.8">C</tspan><tspan x="18.56" y="40.8">anononical s</tspan><tspan class="cls-14" x="107.86" y="40.8">t</tspan><tspan x="113.39" y="40.8">o</tspan><tspan class="cls-75" x="122.72" y="40.8">r</tspan><tspan x="128.71" y="40.8">y title</tspan><tspan x="0" y="61.2">- </tspan><tspan class="cls-84" x="8.82" y="61.2">F</tspan><tspan x="16.57" y="61.2">olio</tspan><tspan class="cls-76" x="0" y="81.6">	</tspan><tspan x="30.55" y="81.6">-</tspan><tspan class="cls-77" x="35.76" y="81.6">S</tspan><tspan x="44.09" y="81.6">ta</tspan><tspan class="cls-78" x="57.92" y="81.6">r</tspan><tspan x="63.88" y="81.6">t </tspan><tspan class="cls-76" x="0" y="102">	</tspan><tspan x="30.55" y="102">-End</tspan><tspan x="0" y="122.4">- </tspan><tspan class="cls-25" x="8.82" y="122.4">C</tspan><tspan x="18.5" y="122.4">olumn</tspan><tspan class="cls-76" x="0" y="142.8">	</tspan><tspan x="30.55" y="142.8">-</tspan><tspan class="cls-77" x="35.76" y="142.8">S</tspan><tspan x="44.09" y="142.8">ta</tspan><tspan class="cls-78" x="57.92" y="142.8">r</tspan><tspan x="63.88" y="142.8">t</tspan><tspan class="cls-76" x="0" y="163.2">	</tspan><tspan x="30.55" y="163.2">-End</tspan><tspan x="0" y="183.6">- Line</tspan><tspan class="cls-76" x="0" y="204">	</tspan><tspan x="30.55" y="204">-</tspan><tspan class="cls-77" x="35.76" y="204">S</tspan><tspan x="44.09" y="204">ta</tspan><tspan class="cls-78" x="57.92" y="204">r</tspan><tspan x="63.88" y="204">t</tspan><tspan class="cls-76" x="0" y="224.4">	</tspan><tspan x="30.55" y="224.4">-End </tspan><tspan x="0" y="244.8">- </tspan><tspan class="cls-15" x="8.82" y="244.8">M</tspan><tspan x="22.69" y="244.8">i</tspan><tspan class="cls-10" x="26.67" y="244.8">r</tspan><tspan x="32.15" y="244.8">acle number</tspan><tspan x="0" y="265.2">- Number of pai</tspan><tspan class="cls-21" x="110.65" y="265.2">n</tspan><tspan x="120.02" y="265.2">tings</tspan><tspan x="0" y="285.6">- </tspan><tspan class="cls-20" x="8.82" y="285.6">I</tspan><tspan x="13.06" y="285.6">ncipit</tspan><tspan x="0" y="306">- </tspan><tspan class="cls-13" x="8.82" y="306">M</tspan><tspan x="22.59" y="306">a</tspan><tspan class="cls-14" x="30.79" y="306">c</tspan><tspan x="38.3" y="306">omber incipit</tspan><tspan x="0" y="326.4">- </tspan><tspan class="cls-25" x="8.82" y="326.4">C</tspan><tspan x="18.5" y="326.4">onfiden</tspan><tspan class="cls-12" x="73.69" y="326.4">c</tspan><tspan x="81.21" y="326.4">e s</tspan><tspan class="cls-14" x="100.06" y="326.4">c</tspan><tspan x="107.58" y="326.4">o</tspan><tspan class="cls-16" x="116.91" y="326.4">r</tspan><tspan x="122.3" y="326.4">e </tspan><tspan x="0" y="346.8">- No</tspan><tspan class="cls-14" x="29.34" y="346.8">t</tspan><tspan x="34.87" y="346.8">es</tspan></text><text class="cls-9" transform="translate(560.78 304.51)"><tspan class="cls-77">S</tspan><tspan class="cls-14" x="8.33" y="0">t</tspan><tspan x="13.85" y="0">o</tspan><tspan class="cls-75" x="23.19" y="0">r</tspan><tspan x="29.17" y="0">y </tspan><tspan class="cls-20" x="40.78" y="0">I</tspan><tspan x="45.02" y="0">nstan</tspan><tspan class="cls-14" x="84.44" y="0">c</tspan><tspan x="91.95" y="0">e</tspan></text><text class="cls-9" transform="translate(871.76 308.13)"><tspan class="cls-85">C</tspan><tspan x="9.74" y="0">anonical </tspan><tspan class="cls-77" x="73.54" y="0">S</tspan><tspan class="cls-12" x="81.87" y="0">t</tspan><tspan x="87.4" y="0">o</tspan><tspan class="cls-75" x="96.73" y="0">r</tspan><tspan x="102.71" y="0">y</tspan></text><text class="cls-9" transform="translate(1261.4 149.33)"><tspan class="cls-85">C</tspan><tspan x="9.74" y="0">alcul</tspan><tspan class="cls-86" x="42.94" y="0">a</tspan><tspan class="cls-87" x="51.07" y="0">t</tspan><tspan x="56.59" y="0">e </tspan><tspan class="cls-88" x="68.71" y="0">A</tspan><tspan x="78.91" y="0">u</tspan><tspan class="cls-87" x="88.28" y="0">t</tspan><tspan x="93.81" y="0">om</tspan><tspan class="cls-86" x="117.32" y="0">a</tspan><tspan x="125.44" y="0">tically</tspan></text><text class="cls-9" transform="translate(1261.4 44.46)"><tspan class="cls-20">I</tspan><tspan x="4.23" y="0">mpo</tspan><tspan class="cls-89" x="37.42" y="0">r</tspan><tspan x="43.38" y="0">t f</tspan><tspan class="cls-16" x="57.58" y="0">r</tspan><tspan x="62.97" y="0">om stru</tspan><tspan class="cls-11" x="117.36" y="0">c</tspan><tspan x="125.2" y="0">tu</tspan><tspan class="cls-16" x="140.2" y="0">r</tspan><tspan x="145.58" y="0">ed </tspan><tspan class="cls-87" x="167.29" y="0">t</tspan><tspan class="cls-77" x="172.82" y="0">e</tspan><tspan class="cls-11" x="181.28" y="0">x</tspan><tspan x="189.37" y="0">t file</tspan></text><text class="cls-9" transform="translate(1261.4 64.48)"><tspan class="cls-20">I</tspan><tspan x="4.23" y="0">mpo</tspan><tspan class="cls-89" x="37.42" y="0">r</tspan><tspan x="43.38" y="0">t f</tspan><tspan class="cls-16" x="57.58" y="0">r</tspan><tspan x="62.97" y="0">om stru</tspan><tspan class="cls-11" x="117.37" y="0">c</tspan><tspan x="125.2" y="0">tu</tspan><tspan class="cls-16" x="140.2" y="0">r</tspan><tspan x="145.58" y="0">ed </tspan><tspan class="cls-87" x="167.29" y="0">t</tspan><tspan class="cls-77" x="172.82" y="0">e</tspan><tspan class="cls-11" x="181.28" y="0">x</tspan><tspan x="189.38" y="0">t file </tspan><tspan x="0" y="20.4">when </tspan><tspan class="cls-90" x="43.5" y="20.4">a</tspan><tspan class="cls-81" x="51.56" y="20.4">v</tspan><tspan x="59.67" y="20.4">ailable</tspan></text><text class="cls-9" transform="translate(1261.4 171.04)"><tspan class="cls-70">C</tspan><tspan x="9.67" y="0">ould be impleme</tspan><tspan class="cls-81" x="130.42" y="0">n</tspan><tspan class="cls-12" x="139.79" y="0">t</tspan><tspan x="145.31" y="0">ed </tspan><tspan x="0" y="20.4">as </tspan><tspan class="cls-91" x="18.53" y="20.4">G</tspan><tspan x="29.6" y="20.4">oogle </tspan><tspan class="cls-92" x="73.9" y="20.4">F</tspan><tspan x="81.65" y="20.4">o</tspan><tspan class="cls-73" x="90.98" y="20.4">r</tspan><tspan x="96.61" y="20.4">m</tspan></text><text class="cls-9" transform="translate(1261.4 216.14)"><tspan class="cls-20">I</tspan><tspan class="cls-81" x="4.23" y="0">n</tspan><tspan class="cls-12" x="13.6" y="0">t</tspan><tspan x="19.12" y="0">ended </tspan><tspan class="cls-74" x="68.37" y="0">f</tspan><tspan x="73.11" y="0">or futu</tspan><tspan class="cls-16" x="120.93" y="0">r</tspan><tspan x="126.32" y="0">e phases</tspan></text><rect class="cls-17" x="85.98" y="275.31" width="152.45" height="366.65"/><line class="cls-17" x1="86.14" y1="361.96" x2="237.54" y2="361.96"/><rect class="cls-17" x="271.01" y="275.31" width="179.06" height="407.07"/><line class="cls-17" x1="271.23" y1="326.1" x2="448" y2="326.1"/><text class="cls-66" transform="translate(792.47 349.85)">- <tspan class="cls-13" x="8.82" y="0">M</tspan><tspan x="22.59" y="0">a</tspan><tspan class="cls-14" x="30.79" y="0">c</tspan><tspan x="38.3" y="0">omber ID</tspan><tspan x="0" y="20.4">- </tspan><tspan class="cls-13" x="8.82" y="20.4">M</tspan><tspan x="22.59" y="20.4">a</tspan><tspan class="cls-14" x="30.79" y="20.4">c</tspan><tspan x="38.3" y="20.4">omber title</tspan><tspan x="0" y="40.8">- O</tspan><tspan class="cls-65" x="20.54" y="40.8">r</tspan><tspan x="26.16" y="40.8">i</tspan><tspan class="cls-14" x="30.14" y="40.8">g</tspan><tspan x="39.54" y="40.8">in</tspan><tspan x="0" y="61.2">- </tspan><tspan class="cls-93" x="8.82" y="61.2">P</tspan><tspan x="17.44" y="61.2">on</tspan><tspan class="cls-14" x="36.21" y="61.2">c</tspan><tspan x="43.72" y="61.2">elet number</tspan><tspan class="cls-1"><tspan x="0" y="74.4" xml:space="preserve">    Indi</tspan><tspan class="cls-94" x="23.68" y="74.4">c</tspan><tspan x="28.08" y="74.4">a</tspan><tspan class="cls-3" x="33.62" y="74.4">t</tspan><tspan x="36.79" y="74.4">es </tspan><tspan class="cls-27" x="47.23" y="74.4">E</tspan><tspan x="52.01" y="74.4">u</tspan><tspan class="cls-7" x="57.57" y="74.4">r</tspan><tspan x="60.64" y="74.4">opean origin</tspan></tspan><tspan x="0" y="94.8">- Hambu</tspan><tspan class="cls-90" x="61.32" y="94.8">r</tspan><tspan x="66.74" y="94.8">g ID </tspan><tspan x="0" y="115.2">- English t</tspan><tspan class="cls-10" x="69.51" y="115.2">r</tspan><tspan x="74.99" y="115.2">ansl</tspan><tspan class="cls-21" x="103.36" y="115.2">a</tspan><tspan x="111.48" y="115.2">tion</tspan><tspan x="0" y="135.6">- </tspan><tspan class="cls-79" x="8.82" y="135.6">P</tspan><tspan class="cls-65" x="17.59" y="135.6">r</tspan><tspan x="23.22" y="135.6">i</tspan><tspan class="cls-21" x="27.2" y="135.6">n</tspan><tspan x="36.57" y="135.6">t </tspan><tspan class="cls-16" x="45.8" y="135.6">v</tspan><tspan x="53.8" y="135.6">ersion</tspan><tspan x="0" y="156">- No</tspan><tspan class="cls-14" x="29.34" y="156">t</tspan><tspan x="34.87" y="156">es</tspan></text><rect class="cls-17" x="479.34" y="275.44" width="264.12" height="454.38"/><line class="cls-17" x1="479.51" y1="345.03" x2="742.68" y2="345.03"/><rect class="cls-17" x="778.42" y="275.65" width="294.17" height="248.79"/><line class="cls-17" x1="777.88" y1="326.44" x2="1072.08" y2="326.44"/><line class="cls-95" x1="279.63" y1="413.2" x2="243.67" y2="413.2"/><path d="M239.14,413.2a22.51,22.51,0,0,0,6.41-3.57l-1.29,3.57,1.29,3.57A22.51,22.51,0,0,0,239.14,413.2Z"/><line class="cls-95" x1="279.63" y1="433.47" x2="243.67" y2="433.47"/><path d="M239.14,433.47a22.48,22.48,0,0,0,6.41-3.56l-1.29,3.56,1.29,3.57A22.51,22.51,0,0,0,239.14,433.47Z"/><line class="cls-95" x1="487.81" y1="364.16" x2="456.36" y2="364.16"/><path d="M451.84,364.16a22.65,22.65,0,0,0,6.41-3.57L457,364.16l1.29,3.56A22.62,22.62,0,0,0,451.84,364.16Z"/><line class="cls-95" x1="664.24" y1="386.29" x2="772.44" y2="386.29"/><path d="M777,386.29a22.65,22.65,0,0,0-6.41,3.57l1.29-3.57-1.29-3.56A22.62,22.62,0,0,0,777,386.29Z"/><line class="cls-95" x1="851.06" y1="386.29" x2="1098.01" y2="386.29"/><path d="M1102.54,386.29a22.65,22.65,0,0,0-6.41,3.57l1.29-3.57-1.29-3.56A22.62,22.62,0,0,0,1102.54,386.29Z"/><line class="cls-17" x1="532.04" y1="734.9" x2="532.04" y2="740.9"/><line class="cls-96" x1="532.04" y1="751.67" x2="532.04" y2="810.95"/><line class="cls-17" x1="532.04" y1="816.34" x2="532.04" y2="822.34"/><path d="M532,731.88a15.2,15.2,0,0,1-2.38,4.27l2.38-.86,2.37.86A14.93,14.93,0,0,1,532,731.88Z"/><line class="cls-17" x1="1017.58" y1="527.46" x2="1017.58" y2="533.46"/><line class="cls-97" x1="1017.58" y1="545.59" x2="1017.58" y2="806.44"/><line class="cls-17" x1="1017.58" y1="812.51" x2="1017.58" y2="818.51"/><path d="M1017.58,524.44a15.39,15.39,0,0,1-2.38,4.28l2.38-.86,2.38.86A14.9,14.9,0,0,1,1017.58,524.44Z"/><path d="M1017.58,821.53a15.25,15.25,0,0,0-2.38-4.28l2.38.86,2.38-.86A14.77,14.77,0,0,0,1017.58,821.53Z"/><polyline class="cls-17" points="1253.04 247.3 1253.04 249.8 1250.54 249.8"/><line class="cls-98" x1="1245.67" y1="249.8" x2="1199.38" y2="249.8"/><polyline class="cls-17" points="1196.95 249.8 1194.45 249.8 1194.45 247.3"/><line class="cls-99" x1="1194.45" y1="243.04" x2="1194.45" y2="236.66"/><polyline class="cls-17" points="1194.45 234.53 1194.45 232.03 1196.95 232.03"/><line class="cls-98" x1="1201.82" y1="232.03" x2="1248.1" y2="232.03"/><polyline class="cls-17" points="1250.54 232.03 1253.04 232.03 1253.04 234.53"/><line class="cls-99" x1="1253.04" y1="238.78" x2="1253.04" y2="245.17"/><line class="cls-17" x1="1196.94" y1="221.51" x2="1199.44" y2="221.51"/><line class="cls-100" x1="1204.77" y1="221.51" x2="1244.73" y2="221.51"/><line class="cls-17" x1="1247.39" y1="221.51" x2="1249.89" y2="221.51"/><path d="M1193.92,221.51a15.2,15.2,0,0,1,4.27,2.38l-.86-2.38.86-2.38A14.72,14.72,0,0,1,1193.92,221.51Z"/><path d="M1252.91,221.51a15.2,15.2,0,0,0-4.27,2.38l.86-2.38-.86-2.38A14.72,14.72,0,0,0,1252.91,221.51Z"/><line class="cls-17" x1="1196.94" y1="210.35" x2="1199.44" y2="210.35"/><line class="cls-101" x1="1204.07" y1="210.35" x2="1248.09" y2="210.35"/><line class="cls-17" x1="1250.41" y1="210.35" x2="1252.91" y2="210.35"/><path d="M1193.92,210.35a15.2,15.2,0,0,1,4.27,2.38l-.86-2.38.86-2.37A14.93,14.93,0,0,1,1193.92,210.35Z"/><line class="cls-17" x1="892" y1="527.46" x2="892" y2="533.46"/><line class="cls-97" x1="892" y1="545.59" x2="892" y2="806.44"/><line class="cls-17" x1="892" y1="812.51" x2="892" y2="818.51"/><path d="M892,524.44a15.12,15.12,0,0,1-2.37,4.28l2.37-.86,2.38.86A15.39,15.39,0,0,1,892,524.44Z"/><path d="M892,821.53a15,15,0,0,0-2.37-4.28l2.37.86,2.38-.86A15.25,15.25,0,0,0,892,821.53Z"/><line class="cls-17" x1="805.41" y1="527.38" x2="804" y2="533.21"/><line class="cls-102" x1="801.07" y1="545.36" x2="738.06" y2="806.68"/><line class="cls-17" x1="736.59" y1="812.76" x2="735.19" y2="818.59"/><path d="M806.11,524.44a15,15,0,0,1-3.31,3.6l2.51-.28,2.11,1.39A15,15,0,0,1,806.11,524.44Z"/><path d="M734.48,821.53a15.16,15.16,0,0,0-1.31-4.72l2.11,1.4,2.51-.28A15,15,0,0,0,734.48,821.53Z"/><polygon class="cls-24" points="1246.17 42.01 1241.99 40.04 1246.09 37.92 1246.67 33.34 1249.95 36.59 1254.49 35.72 1252.42 39.84 1254.64 43.89 1250.08 43.19 1246.92 46.56 1246.17 42.01"/><polygon class="cls-103" points="1246.17 60.35 1241.99 58.38 1246.09 56.26 1246.67 51.68 1249.95 54.93 1254.49 54.06 1252.42 58.19 1254.64 62.23 1250.08 61.54 1246.92 64.9 1246.17 60.35"/><text class="cls-9" transform="translate(1261.4 105.82)"><tspan class="cls-104">A</tspan><tspan x="10.2" y="0">dd f</tspan><tspan class="cls-16" x="37.94" y="0">r</tspan><tspan x="43.33" y="0">om </tspan><tspan class="cls-73" x="70.45" y="0">B</tspan><tspan x="79.73" y="0">eta </tspan><tspan class="cls-105" x="105.67" y="0">Maṣāḥǝft</tspan></text><polygon class="cls-106" points="1246.1 97.92 1249.53 94.13 1250.88 99.06 1254.68 102.49 1249.74 103.84 1246.32 107.64 1244.97 102.7 1241.16 99.28 1246.1 97.92"/><text class="cls-9" transform="translate(1261.4 127.47)"><tspan class="cls-104">A</tspan><tspan x="10.2" y="0">dd f</tspan><tspan class="cls-16" x="37.94" y="0">r</tspan><tspan x="43.33" y="0">om </tspan><tspan class="cls-10" x="70.45" y="0">O</tspan><tspan x="82.07" y="0">x</tspan><tspan class="cls-74" x="89.95" y="0">f</tspan><tspan x="94.69" y="0">o</tspan><tspan class="cls-16" x="104.02" y="0">r</tspan><tspan x="109.41" y="0">d CSM</tspan></text><polygon class="cls-107" points="1247.58 148.11 1240.83 148.11 1244.2 143.99 1247.58 139.86 1250.96 143.99 1254.34 148.11 1247.58 148.11"/><polygon class="cls-23" points="1247.67 162.1 1251.08 159.61 1250.62 163.8 1254.48 165.5 1250.62 167.21 1251.08 171.4 1247.67 168.91 1244.27 171.4 1244.72 167.21 1240.86 165.5 1244.72 163.8 1244.27 159.61 1247.67 162.1"/><polygon class="cls-24" points="373.65 414.25 369.48 412.29 373.57 410.17 374.15 405.59 377.44 408.83 381.97 407.97 379.9 412.09 382.13 416.14 377.56 415.44 374.4 418.81 373.65 414.25"/><polygon class="cls-24" points="319.08 375.11 314.9 373.14 319 371.02 319.58 366.44 322.86 369.68 327.39 368.82 325.32 372.94 327.55 376.99 322.99 376.29 319.83 379.66 319.08 375.11"/><polygon class="cls-24" points="591.96 367.5 587.78 365.54 591.88 363.42 592.46 358.84 595.74 362.08 600.27 361.22 598.21 365.34 600.43 369.39 595.87 368.69 592.71 372.06 591.96 367.5"/><polygon class="cls-24" points="640.26 386.39 636.09 384.43 640.19 382.31 640.76 377.73 644.05 380.97 648.58 380.1 646.51 384.23 648.74 388.27 644.17 387.58 641.01 390.94 640.26 386.39"/><polygon class="cls-103" points="546.3 427.37 542.12 425.41 546.22 423.29 546.8 418.71 550.08 421.95 554.62 421.08 552.55 425.21 554.77 429.25 550.21 428.56 547.05 431.93 546.3 427.37"/><polygon class="cls-103" points="622.86 612 618.68 610.04 622.78 607.92 623.36 603.34 626.64 606.58 631.17 605.72 629.1 609.84 631.33 613.88 626.77 613.19 623.61 616.56 622.86 612"/><polygon class="cls-103" points="556.12 651.63 551.95 649.67 556.05 647.54 556.62 642.97 559.91 646.21 564.44 645.34 562.37 649.47 564.6 653.51 560.03 652.82 556.88 656.18 556.12 651.63"/><polygon class="cls-103" points="636.26 672.28 632.09 670.32 636.19 668.2 636.76 663.62 640.05 666.86 644.58 665.99 642.51 670.12 644.74 674.16 640.17 673.47 637.01 676.84 636.26 672.28"/><polygon class="cls-103" points="634.94 694.45 630.76 692.49 634.86 690.36 635.44 685.78 638.72 689.03 643.25 688.16 641.19 692.29 643.41 696.33 638.85 695.64 635.69 699 634.94 694.45"/><polygon class="cls-24" points="909.08 346.5 904.9 344.54 909 342.42 909.58 337.84 912.86 341.08 917.39 340.21 915.32 344.34 917.55 348.38 912.99 347.69 909.83 351.06 909.08 346.5"/><polygon class="cls-103" points="940.33 462.67 936.16 460.7 940.25 458.58 940.83 454 944.12 457.25 948.65 456.38 946.58 460.51 948.8 464.55 944.24 463.86 941.08 467.22 940.33 462.67"/><polygon class="cls-103" points="897.43 482.85 893.25 480.89 897.35 478.77 897.93 474.19 901.21 477.43 905.74 476.56 903.67 480.69 905.9 484.73 901.34 484.04 898.18 487.4 897.43 482.85"/><polygon class="cls-24" points="920.91 368.5 916.74 366.53 920.84 364.41 921.41 359.83 924.7 363.07 929.23 362.21 927.16 366.33 929.38 370.38 924.82 369.68 921.66 373.05 920.91 368.5"/><polygon class="cls-23" points="1161.53 846.44 1164.94 843.94 1164.48 848.14 1168.34 849.84 1164.48 851.54 1164.94 855.74 1161.53 853.25 1158.13 855.74 1158.58 851.54 1154.72 849.84 1158.58 848.14 1158.13 843.94 1161.53 846.44"/><text class="cls-9" transform="translate(1151.68 309.97)"><tspan class="cls-77">S</tspan><tspan class="cls-14" x="8.33" y="0">t</tspan><tspan x="13.85" y="0">o</tspan><tspan class="cls-75" x="23.19" y="0">r</tspan><tspan x="29.17" y="0">y O</tspan><tspan class="cls-65" x="52.5" y="0">r</tspan><tspan x="58.12" y="0">i</tspan><tspan class="cls-12" x="62.1" y="0">g</tspan><tspan x="71.5" y="0">in</tspan></text><text class="cls-66" transform="translate(1118.23 357.57)">- Name<tspan x="0" y="20.4">- </tspan><tspan class="cls-65" x="8.82" y="20.4">R</tspan><tspan x="18.04" y="20.4">e</tspan><tspan class="cls-14" x="26.55" y="20.4">g</tspan><tspan x="35.95" y="20.4">ion</tspan><tspan x="0" y="40.8">- No</tspan><tspan class="cls-14" x="29.34" y="40.8">t</tspan><tspan x="34.87" y="40.8">es</tspan></text><rect class="cls-17" x="1104.97" y="276.43" width="179.06" height="150"/><line class="cls-17" x1="1106.48" y1="327.21" x2="1283.24" y2="327.21"/><polygon class="cls-108" points="1249.57 117.08 1252.41 117.25 1252.81 120.15 1254.41 122.55 1252.45 124.72 1251.6 127.53 1248.76 127.34 1246.1 128.46 1244.51 126.04 1242.04 124.62 1242.91 121.81 1242.49 118.91 1245.16 117.82 1247.11 115.63 1249.57 117.08"/><polygon class="cls-106" points="898.68 435.73 902.11 431.93 903.46 436.86 907.26 440.29 902.33 441.64 898.9 445.44 897.55 440.5 893.75 437.08 898.68 435.73"/><polygon class="cls-108" points="936.52 401.55 939.3 402.19 939.21 405.11 940.4 407.74 938.11 409.55 936.81 412.19 934.04 411.54 931.23 412.2 930.06 409.56 927.86 407.75 929.18 405.12 929.24 402.2 932.05 401.56 934.33 399.72 936.52 401.55"/><polygon class="cls-107" points="159.84 384.33 153.08 384.33 156.46 380.21 159.84 376.09 163.22 380.21 166.59 384.33 159.84 384.33"/><polygon class="cls-107" points="433.2 355.56 426.45 355.56 429.83 351.43 433.2 347.31 436.58 351.43 439.96 355.56 433.2 355.56"/><polygon class="cls-107" points="675.02 409.71 668.27 409.71 671.65 405.59 675.02 401.47 678.4 405.59 681.78 409.71 675.02 409.71"/><polygon class="cls-107" points="393.06 457.08 386.31 457.08 389.69 452.96 393.06 448.84 396.44 452.96 399.82 457.08 393.06 457.08"/></svg>